/* XPM */
static char * close_inactive_xpm[] = {
"26 26 9 1",
" 	c None",
".	c #273238",
"+	c #57636E",
"@	c #4E5963",
"#	c #2A363B",
"$	c #2A343B",
"%	c #4D5862",
"&	c #29343B",
"*	c #4B5761",
"                          ",
"  ......................  ",
" ........................ ",
" ........................ ",
" ........................ ",
" ........................ ",
" ........................ ",
" ........................ ",
" ........................ ",
" ........+@#..$%+........ ",
" ........%+%$$%+%........ ",
" ........$%+%%+%$........ ",
" .........&*++%$......... ",
" .........$%++@#......... ",
" ........$%+%%+%$........ ",
" ........%+%$$%+%........ ",
" ........+%$..&*+........ ",
" ........................ ",
" ........................ ",
" ........................ ",
" ........................ ",
" ........................ ",
" ........................ ",
" ........................ ",
"  ......................  ",
"                          "};
