/* XPM */
static char * close_active_xpm[] = {
"26 26 10 1",
" 	c None",
".	c #273238",
"+	c #DEE2E5",
"@	c #BABFC2",
"#	c #333E43",
"$	c #313B42",
"%	c #B6BBBF",
"&	c #B5BABF",
"*	c #2F3A40",
"=	c #B1B7BB",
"                          ",
"  ......................  ",
" ........................ ",
" ........................ ",
" ........................ ",
" ........................ ",
" ........................ ",
" ........................ ",
" ........................ ",
" ........+@#..$%+........ ",
" ........&+&$$&+&........ ",
" ........$&+&&+&$........ ",
" .........*=++&$......... ",
" .........$%++@#......... ",
" ........$&+&&+&$........ ",
" ........&+&$$&+&........ ",
" ........+&$..*=+........ ",
" ........................ ",
" ........................ ",
" ........................ ",
" ........................ ",
" ........................ ",
" ........................ ",
" ........................ ",
"  ......................  ",
"                          "};
