/* XPM */
static char * close_prelight_xpm[] = {
"26 26 16 1",
" 	c None",
".	c #273238",
"+	c #744649",
"@	c #CC5D5D",
"#	c #D35F5F",
"$	c #734649",
"%	c #CB5D5E",
"&	c #FFFFFF",
"*	c #F6DFDF",
"=	c #D66A6A",
"-	c #D56868",
";	c #F5DCDC",
">	c #F5DBDB",
",	c #D56666",
"'	c #F4D8D8",
")	c #724549",
"                          ",
"  ......................  ",
" ........................ ",
" ..+@################@$.. ",
" ..@##################%.. ",
" ..####################.. ",
" ..####################.. ",
" ..####################.. ",
" ..####################.. ",
" ..######&*=##-;&######.. ",
" ..######>&>-->&>######.. ",
" ..######->&>>&>-######.. ",
" ..#######,'&&>-#######.. ",
" ..#######-;&&*=#######.. ",
" ..######->&>>&>-######.. ",
" ..######>&>-->&>######.. ",
" ..######&>-##,'&######.. ",
" ..####################.. ",
" ..####################.. ",
" ..####################.. ",
" ..####################.. ",
" ..@##################%.. ",
" ..$%################%).. ",
" ........................ ",
"  ......................  ",
"                          "};
