/* XPM */
static char * hide_prelight_xpm[] = {
"26 26 8 1",
" 	c None",
".	c #273238",
"+	c #2D6091",
"@	c #3394F6",
"#	c #3399FF",
"$	c #2D6090",
"%	c #FFFFFF",
"&	c #2C5F8F",
"                          ",
"  ......................  ",
" ........................ ",
" ..+@################@$.. ",
" ..@##################@.. ",
" ..####################.. ",
" ..####################.. ",
" ..####################.. ",
" ..####################.. ",
" ..####################.. ",
" ..####################.. ",
" ..####################.. ",
" ..####################.. ",
" ..####################.. ",
" ..####################.. ",
" ..######%%%%%%%%######.. ",
" ..######%%%%%%%%######.. ",
" ..####################.. ",
" ..####################.. ",
" ..####################.. ",
" ..####################.. ",
" ..@##################@.. ",
" ..$@################@&.. ",
" ........................ ",
"  ......................  ",
"                          "};
