/* XPM */
static char * maximize_prelight_xpm[] = {
"26 26 11 1",
" 	c None",
".	c #273238",
"+	c #2D6091",
"@	c #3394F6",
"#	c #3399FF",
"$	c #2D6090",
"%	c #92C9FF",
"&	c #FFFFFF",
"*	c #A0CFFF",
"=	c #99CCFF",
"-	c #2C5F8F",
"                          ",
"  ......................  ",
" ........................ ",
" ..+@################@$.. ",
" ..@##################@.. ",
" ..####################.. ",
" ..####################.. ",
" ..####################.. ",
" ..####################.. ",
" ..########%&&&&&######.. ",
" ..#########%&&&&######.. ",
" ..######*#####&&######.. ",
" ..######&*####&&######.. ",
" ..######&&####%&######.. ",
" ..######&&#####=######.. ",
" ..######&&&&*#########.. ",
" ..######&&&&&*########.. ",
" ..####################.. ",
" ..####################.. ",
" ..####################.. ",
" ..####################.. ",
" ..@##################@.. ",
" ..$@################@-.. ",
" ........................ ",
"  ......................  ",
"                          "};
