/* XPM */
static char * maximize_active_xpm[] = {
"26 26 6 1",
" 	c None",
".	c #273238",
"+	c #7D8489",
"@	c #DEE2E5",
"#	c #889094",
"$	c #828A8F",
"                          ",
"  ......................  ",
" ........................ ",
" ........................ ",
" ........................ ",
" ........................ ",
" ........................ ",
" ........................ ",
" ........................ ",
" ..........+@@@@@........ ",
" ...........+@@@@........ ",
" ........#.....@@........ ",
" ........@#....@@........ ",
" ........@@....+@........ ",
" ........@@.....$........ ",
" ........@@@@#........... ",
" ........@@@@@#.......... ",
" ........................ ",
" ........................ ",
" ........................ ",
" ........................ ",
" ........................ ",
" ........................ ",
" ........................ ",
"  ......................  ",
"                          "};
