/* XPM */
static char * menu_active_xpm[] = {
"26 26 4 1",
" 	c None",
".	c #273238",
"+	c #889094",
"@	c #DEE2E5",
"                          ",
"  ......................  ",
" ........................ ",
" ........................ ",
" ........................ ",
" ........................ ",
" ........................ ",
" ........................ ",
" ........................ ",
" ........................ ",
" ........................ ",
" .........+@@@@+......... ",
" ..........+@@+.......... ",
" ...........++........... ",
" ........................ ",
" ........................ ",
" ........................ ",
" ........................ ",
" ........................ ",
" ........................ ",
" ........................ ",
" ........................ ",
" ........................ ",
" ........................ ",
"  ......................  ",
"                          "};
