/* XPM */
static char * top_right_active_xpm[] = {
"4 26 5 1",
" 	c None",
".	c #0E100F",
"+	c #232523",
"@	c #273238",
"#	c #151817",
".+  ",
"@@# ",
"@@@+",
"@@@.",
"@@@.",
"@@@.",
"@@@.",
"@@@.",
"@@@.",
"@@@.",
"@@@.",
"@@@.",
"@@@.",
"@@@.",
"@@@.",
"@@@.",
"@@@.",
"@@@.",
"@@@.",
"@@@.",
"@@@.",
"@@@.",
"@@@.",
"@@@.",
"@@@.",
"@@@."};
