/* XPM */
static char * top_left_active_xpm[] = {
"4 26 5 1",
" 	c None",
".	c #232523",
"+	c #0E100F",
"@	c #151817",
"#	c #273238",
"  .+",
" @##",
".###",
"+###",
"+###",
"+###",
"+###",
"+###",
"+###",
"+###",
"+###",
"+###",
"+###",
"+###",
"+###",
"+###",
"+###",
"+###",
"+###",
"+###",
"+###",
"+###",
"+###",
"+###",
"+###",
"+###"};
